<svg width="243" height="141" viewBox="0 0 243 141" fill="none" xmlns="http://www.w3.org/2000/svg">
<rect x="1" y="1" width="241" height="139" rx="9" fill="white" stroke="#4F2F2F" stroke-width="2"/>
<path d="M45.96 63.04C46.26 62.84 46.58 62.87 46.92 63.13C47.04 63.23 47.18 63.28 47.34 63.28C47.6 63.28 47.77 63.6 47.85 64.24C47.95 64.88 47.92 65.52 47.76 66.16C47.66 66.6 47.64 66.99 47.7 67.33C47.76 67.67 47.76 67.95 47.7 68.17C47.66 68.37 47.64 68.62 47.64 68.92C47.64 69.2 47.57 69.47 47.43 69.73C47.29 69.99 47.25 70.24 47.31 70.48C47.39 70.84 47.43 72.29 47.43 74.83C47.43 74.93 47.43 75.07 47.43 75.25C47.43 75.73 47.41 76.03 47.37 76.15C47.33 76.25 47.18 76.4 46.92 76.6C46.82 76.68 46.75 76.74 46.71 76.78C46.41 77.02 46.08 77.08 45.72 76.96C45.38 76.82 45.21 76.58 45.21 76.24C45.21 76.04 45.17 75.84 45.09 75.64C44.99 75.42 44.88 74.63 44.76 73.27C44.74 72.89 44.62 72.68 44.4 72.64C44.2 72.58 43.64 72.65 42.72 72.85C41.94 73.01 41.53 72.89 41.49 72.49C41.47 72.37 41.42 72.16 41.34 71.86C41.24 71.5 41.25 71.25 41.37 71.11C41.49 70.95 41.73 70.87 42.09 70.87C42.61 70.87 42.97 70.75 43.17 70.51C43.25 70.41 43.39 70.34 43.59 70.3C43.81 70.24 43.96 70.23 44.04 70.27C44.2 70.37 44.38 70.34 44.58 70.18C44.8 70.02 44.91 69.84 44.91 69.64C44.91 69.48 44.96 69.33 45.06 69.19C45.34 68.83 45.26 68.62 44.82 68.56C44.48 68.5 44.07 68.56 43.59 68.74C42.95 69 42.55 68.93 42.39 68.53C42.33 68.39 42.24 68.2 42.12 67.96C41.76 67.28 41.83 66.77 42.33 66.43C42.89 66.05 43.34 65.86 43.68 65.86C43.86 65.86 44.09 65.83 44.37 65.77C44.67 65.69 44.86 65.62 44.94 65.56C45.12 65.42 45.24 65.04 45.3 64.42C45.32 63.98 45.36 63.68 45.42 63.52C45.5 63.36 45.68 63.2 45.96 63.04ZM34.2 63.46C34.36 63.4 34.55 63.38 34.77 63.4C35.03 63.46 35.43 63.47 35.97 63.43C36.21 63.43 36.4 63.48 36.54 63.58C36.68 63.7 36.87 63.76 37.11 63.76C37.39 63.76 37.77 63.9 38.25 64.18C38.39 64.26 38.5 64.3 38.58 64.3C39 64.3 39.44 64.72 39.9 65.56C40.14 66.02 40.27 66.27 40.29 66.31C40.53 66.73 40.71 67.26 40.83 67.9C40.97 68.54 41 69.04 40.92 69.4C40.86 69.64 40.82 70 40.8 70.48C40.76 71 40.71 71.34 40.65 71.5C40.61 71.64 40.48 71.84 40.26 72.1C39.96 72.42 39.8 72.68 39.78 72.88C39.68 73.44 39.55 73.82 39.39 74.02C39.23 74.2 38.85 74.42 38.25 74.68C37.59 74.98 37.15 75.17 36.93 75.25C36.71 75.31 36.49 75.4 36.27 75.52C35.89 75.74 35.54 75.74 35.22 75.52C35.04 75.38 34.82 75.32 34.56 75.34C34.18 75.34 33.71 75.14 33.15 74.74C32.61 74.32 32.15 73.82 31.77 73.24C31.57 72.94 31.35 72.47 31.11 71.83C30.87 71.17 30.75 70.73 30.75 70.51C30.77 70.31 30.78 69.92 30.78 69.34C30.8 68.7 30.84 68.33 30.9 68.23C30.96 68.13 31.03 67.9 31.11 67.54C31.21 67.16 31.49 66.47 31.95 65.47C32.03 65.35 32.13 65.25 32.25 65.17C32.39 65.07 32.7 64.78 33.18 64.3C33.68 63.8 34.02 63.52 34.2 63.46ZM35.94 66.16C35.9 66.16 35.81 66.15 35.67 66.13C35.53 66.09 35.44 66.07 35.4 66.07C35.04 65.99 34.7 66.18 34.38 66.64C34.26 66.86 34.12 67.06 33.96 67.24C33.82 67.4 33.73 67.61 33.69 67.87C33.65 68.13 33.58 68.41 33.48 68.71C33.34 69.13 33.29 69.59 33.33 70.09C33.39 70.57 33.53 70.99 33.75 71.35C33.91 71.61 34.03 71.9 34.11 72.22C34.17 72.46 34.22 72.6 34.26 72.64C34.3 72.68 34.42 72.71 34.62 72.73C34.88 72.75 35.13 72.81 35.37 72.91C35.59 73.01 35.78 73.04 35.94 73C36.1 72.94 36.29 72.81 36.51 72.61C36.71 72.45 36.94 72.31 37.2 72.19C37.4 72.09 37.53 72 37.59 71.92C37.65 71.84 37.71 71.68 37.77 71.44C37.83 71.22 37.93 71.03 38.07 70.87C38.33 70.57 38.48 70.13 38.52 69.55C38.58 68.97 38.52 68.48 38.34 68.08C38.18 67.76 38.1 67.49 38.1 67.27C38.1 66.95 37.95 66.68 37.65 66.46C37.35 66.24 37.02 66.15 36.66 66.19C36.4 66.23 36.16 66.22 35.94 66.16ZM54.2398 62.35C55.1198 62.31 55.6398 62.27 55.7998 62.23C55.9598 62.17 56.2998 62.15 56.8198 62.17C57.3398 62.19 57.7498 62.23 58.0498 62.29C58.3098 62.35 58.5498 62.35 58.7698 62.29C58.9498 62.25 59.1498 62.25 59.3698 62.29C59.5898 62.33 59.7598 62.39 59.8798 62.47C59.9598 62.55 60.1198 62.6 60.3598 62.62C60.5998 62.66 60.7798 62.72 60.8998 62.8C61.0198 62.88 61.1298 63.02 61.2298 63.22C61.3498 63.46 61.4798 63.69 61.6198 63.91C61.8398 64.25 61.8998 64.6 61.7998 64.96C61.7398 65.18 61.7598 65.43 61.8598 65.71C62.0198 66.23 61.9998 66.76 61.7998 67.3C61.6998 67.62 61.6698 67.94 61.7098 68.26C61.7498 68.76 61.6798 69.14 61.4998 69.4C61.3198 69.66 60.9898 69.83 60.5098 69.91C60.1698 69.99 59.8498 70.07 59.5498 70.15C59.2098 70.25 58.8698 70.32 58.5298 70.36C58.1898 70.38 57.8898 70.41 57.6298 70.45C57.3698 70.47 57.1098 70.46 56.8498 70.42C56.5698 70.36 56.2198 70.37 55.7998 70.45C55.2398 70.53 54.8498 70.58 54.6298 70.6C54.1098 70.66 53.7498 70.82 53.5498 71.08C53.4898 71.16 53.4598 71.52 53.4598 72.16C53.4598 73.02 53.5998 73.65 53.8798 74.05C54.1798 74.45 54.5998 74.59 55.1398 74.47C55.3998 74.41 55.7098 74.42 56.0698 74.5C56.6698 74.62 57.4298 74.59 58.3498 74.41C58.4698 74.39 58.7398 74.41 59.1598 74.47C59.5998 74.53 59.9598 74.6 60.2398 74.68C60.3598 74.72 60.5198 74.89 60.7198 75.19C60.9398 75.47 61.0498 75.68 61.0498 75.82C61.0498 75.92 60.9098 76.12 60.6298 76.42C60.3498 76.72 60.1598 76.87 60.0598 76.87C60.0398 76.87 59.9898 76.88 59.9098 76.9C59.8298 76.9 59.7098 76.9 59.5498 76.9C59.3898 76.9 59.2498 76.91 59.1298 76.93C57.4898 77.01 56.4598 76.99 56.0398 76.87C55.8198 76.81 55.5098 76.79 55.1098 76.81C54.6898 76.81 54.3698 76.75 54.1498 76.63C53.9298 76.49 53.6898 76.43 53.4298 76.45C53.2298 76.49 52.9998 76.45 52.7398 76.33C52.4998 76.21 52.3598 76.08 52.3198 75.94C52.2998 75.84 52.1998 75.72 52.0198 75.58C51.7198 75.32 51.5098 74.97 51.3898 74.53C51.2898 74.23 51.1598 73.93 50.9998 73.63C50.6798 72.95 50.6598 72.35 50.9398 71.83C51.0398 71.63 51.1398 71.33 51.2398 70.93C51.3998 70.25 51.5098 69.83 51.5698 69.67C51.6498 69.51 51.8398 69.27 52.1398 68.95C52.3998 68.67 52.5798 68.5 52.6798 68.44C52.7998 68.36 52.9598 68.3 53.1598 68.26C53.4598 68.22 53.7098 68.16 53.9098 68.08C54.2698 67.92 55.2898 67.81 56.9698 67.75C57.9098 67.71 58.4698 67.66 58.6498 67.6C58.8298 67.52 58.9198 67.29 58.9198 66.91C58.9198 66.69 58.9698 66.44 59.0698 66.16C59.2098 65.82 59.2498 65.51 59.1898 65.23C59.1498 64.95 59.0298 64.76 58.8298 64.66C58.1098 64.32 57.2898 64.27 56.3698 64.51C55.6898 64.67 54.8498 64.72 53.8498 64.66C53.6498 64.66 53.3998 64.7 53.0998 64.78C52.6798 64.86 52.3798 64.86 52.1998 64.78C52.0398 64.7 51.9098 64.49 51.8098 64.15C51.6298 63.51 51.7098 63.06 52.0498 62.8C52.4098 62.54 53.1398 62.39 54.2398 62.35ZM66.4498 62.8C66.6698 62.68 66.9798 62.68 67.3798 62.8C67.7798 62.92 68.0198 63.09 68.0998 63.31C68.1798 63.49 68.2398 64.01 68.2798 64.87C68.3398 65.73 68.3498 66.3 68.3098 66.58C68.2298 66.98 68.1998 67.91 68.2198 69.37C68.2398 70.55 68.1798 71.3 68.0398 71.62C67.9398 71.82 67.9198 72.33 67.9798 73.15C68.0998 74.25 68.1398 75.1 68.0998 75.7C68.0798 76.28 68.0098 76.68 67.8898 76.9C67.7698 77.1 67.5198 77.35 67.1398 77.65C66.8998 77.83 66.6398 77.85 66.3598 77.71C66.0798 77.55 65.9398 77.3 65.9398 76.96C65.9398 76.72 65.8898 76.44 65.7898 76.12C65.6698 75.84 65.6198 75.54 65.6398 75.22C65.6398 74.94 65.5998 74.59 65.5198 74.17C65.4398 73.77 65.4298 73.41 65.4898 73.09C65.5498 72.77 65.5598 72.51 65.5198 72.31C65.4598 72.07 65.4598 71.85 65.5198 71.65C65.5798 71.33 65.5298 71.13 65.3698 71.05C65.2098 70.97 64.8198 70.96 64.1998 71.02C63.6998 71.06 63.3698 71.06 63.2098 71.02C63.0498 70.96 62.9098 70.8 62.7898 70.54C62.6098 70.18 62.5298 69.93 62.5498 69.79C62.5698 69.65 62.6998 69.48 62.9398 69.28C63.5598 68.82 63.9998 68.57 64.2598 68.53C64.4598 68.51 64.7298 68.42 65.0698 68.26C65.3698 68.14 65.5498 68.01 65.6098 67.87C65.6898 67.71 65.7298 67.39 65.7298 66.91C65.7298 66.43 65.7698 66.07 65.8498 65.83C65.9298 65.59 65.9398 65.2 65.8798 64.66C65.7798 63.72 65.9698 63.1 66.4498 62.8ZM72.1397 58.99C72.3797 58.89 72.6497 58.91 72.9497 59.05C73.1697 59.17 73.3097 59.23 73.3697 59.23C73.6697 59.23 73.8097 59.61 73.7897 60.37C73.7897 60.87 73.8297 61.15 73.9097 61.21C74.0097 61.27 74.6897 61.3 75.9497 61.3C77.2297 61.28 78.0297 61.24 78.3497 61.18C78.6297 61.1 78.9597 61.1 79.3397 61.18C79.7197 61.24 80.0897 61.24 80.4497 61.18C80.7897 61.1 81.1297 61.09 81.4697 61.15C81.9697 61.25 82.2897 61.26 82.4297 61.18C82.5897 61.1 82.7297 60.87 82.8497 60.49C82.9697 60.03 83.1197 59.73 83.2997 59.59C83.4797 59.45 83.7897 59.38 84.2297 59.38C84.6897 59.38 85.0097 59.52 85.1897 59.8C85.3697 60.08 85.4497 60.57 85.4297 61.27C85.4297 61.71 85.4597 61.99 85.5197 62.11C85.5997 62.23 85.6397 62.48 85.6397 62.86C85.6397 64.16 85.6097 64.94 85.5497 65.2C85.5097 65.46 85.3397 65.92 85.0397 66.58C84.4397 67.82 83.7297 68.4 82.9097 68.32C82.6497 68.28 82.3797 68.31 82.0997 68.41C81.8197 68.49 81.2697 68.52 80.4497 68.5C79.6497 68.46 79.0697 68.48 78.7097 68.56C78.3497 68.64 78.0697 68.65 77.8697 68.59C77.6497 68.53 77.3997 68.53 77.1197 68.59C76.8397 68.67 76.5997 68.67 76.3997 68.59C76.1997 68.53 75.9697 68.53 75.7097 68.59C75.5297 68.63 75.3997 68.65 75.3197 68.65C75.2397 68.63 75.0897 68.58 74.8697 68.5C74.5697 68.36 74.3197 68.3 74.1197 68.32C73.8197 68.38 73.3997 68.18 72.8597 67.72C72.3397 67.24 72.0197 66.79 71.8997 66.37C71.8197 66.07 71.6997 65.75 71.5397 65.41C71.3797 65.09 71.2997 64.69 71.2997 64.21C71.3197 63.75 71.2997 63.4 71.2397 63.16C71.1797 62.94 71.1897 62.69 71.2697 62.41C71.3497 62.11 71.3697 61.74 71.3297 61.3C71.3097 60.78 71.3797 60.29 71.5397 59.83C71.6997 59.37 71.8997 59.09 72.1397 58.99ZM81.3497 63.31C81.0897 63.21 80.7497 63.18 80.3297 63.22C79.9297 63.24 79.5397 63.33 79.1597 63.49C78.9397 63.59 78.7797 63.65 78.6797 63.67C78.5997 63.67 78.4297 63.64 78.1697 63.58C77.8297 63.52 77.2897 63.55 76.5497 63.67C76.1497 63.75 75.8097 63.74 75.5297 63.64C74.7897 63.4 74.3497 63.37 74.2097 63.55C74.1497 63.61 74.1497 63.97 74.2097 64.63C74.2697 65.27 74.3297 65.64 74.3897 65.74C74.4697 65.84 74.6897 65.93 75.0497 66.01C75.4097 66.07 75.7597 66.08 76.0997 66.04C76.5197 66.02 76.8097 66.04 76.9697 66.1C77.2497 66.2 77.9597 66.28 79.0997 66.34C80.2397 66.38 80.9997 66.35 81.3797 66.25C81.8397 66.17 82.1197 66.07 82.2197 65.95C82.3397 65.83 82.4897 65.51 82.6697 64.99C83.0497 63.93 82.8397 63.41 82.0397 63.43C81.7597 63.43 81.5297 63.39 81.3497 63.31ZM75.8297 70.6C76.8497 70.58 77.4097 70.54 77.5097 70.48C77.6297 70.42 77.8297 70.41 78.1097 70.45C78.3697 70.49 78.6597 70.5 78.9797 70.48C79.1997 70.46 79.4697 70.45 79.7897 70.45C82.4097 70.49 83.9897 70.57 84.5297 70.69C85.0697 70.79 85.4297 71.1 85.6097 71.62C85.7497 72.04 85.7797 72.34 85.6997 72.52C85.6197 72.7 85.3997 72.82 85.0397 72.88C84.7397 72.94 84.5297 73.02 84.4097 73.12C84.2097 73.3 83.9197 73.32 83.5397 73.18C83.2797 73.08 82.7697 73.02 82.0097 73C81.2697 73 80.8297 72.97 80.6897 72.91C80.3297 72.71 80.0297 72.73 79.7897 72.97C79.5497 73.21 79.4397 73.6 79.4597 74.14C79.4597 74.52 79.3997 74.9 79.2797 75.28C79.1797 75.66 79.0597 75.89 78.9197 75.97C78.8197 76.05 78.5697 76.12 78.1697 76.18C77.7697 76.24 77.4997 76.25 77.3597 76.21C77.2397 76.19 77.1597 76.1 77.1197 75.94C77.0997 75.8 77.0497 75.61 76.9697 75.37C76.8897 75.11 76.8597 74.7 76.8797 74.14C76.9197 73.66 76.9097 73.38 76.8497 73.3C76.8097 73.2 76.6197 73.13 76.2797 73.09C75.8597 73.05 75.5597 73.02 75.3797 73C75.0797 72.96 74.8197 73 74.5997 73.12C74.0797 73.36 73.6197 73.38 73.2197 73.18C72.9597 73.04 72.7397 72.97 72.5597 72.97C72.2797 72.97 72.0197 72.83 71.7797 72.55C71.5397 72.25 71.4497 71.99 71.5097 71.77C71.6697 71.29 72.0097 70.98 72.5297 70.84C73.0697 70.7 74.1697 70.62 75.8297 70.6ZM72.3797 74.92C72.5997 74.76 72.8297 74.79 73.0697 75.01C73.1897 75.11 73.3297 75.19 73.4897 75.25C73.6497 75.29 73.7397 75.38 73.7597 75.52C73.7997 75.64 73.7897 75.87 73.7297 76.21C73.6897 76.53 73.6697 76.73 73.6697 76.81C73.6897 76.87 73.7597 76.98 73.8797 77.14C74.0397 77.34 74.1197 77.51 74.1197 77.65C74.1197 77.93 74.2697 78.1 74.5697 78.16C74.8097 78.22 75.0997 78.29 75.4397 78.37C75.8797 78.47 76.1897 78.51 76.3697 78.49C76.5697 78.45 76.7797 78.46 76.9997 78.52C77.2597 78.6 77.6997 78.64 78.3197 78.64C78.9597 78.64 79.3697 78.6 79.5497 78.52C79.7697 78.42 80.4297 78.36 81.5297 78.34C82.8097 78.34 83.5797 78.37 83.8397 78.43C84.0997 78.47 84.2697 78.63 84.3497 78.91C84.3897 79.05 84.4597 79.25 84.5597 79.51C84.7397 80.01 84.5897 80.34 84.1097 80.5C83.8497 80.58 83.6797 80.66 83.5997 80.74C83.5197 80.78 82.6897 80.81 81.1097 80.83C79.5297 80.85 78.6597 80.89 78.4997 80.95C78.1197 81.05 77.7197 81.03 77.2997 80.89C77.0397 80.81 76.7297 80.81 76.3697 80.89C75.9897 80.97 75.6897 80.97 75.4697 80.89C75.2897 80.81 75.0797 80.79 74.8397 80.83C74.4397 80.89 74.0797 80.74 73.7597 80.38C73.6597 80.26 73.4097 80.1 73.0097 79.9C72.7097 79.76 72.4897 79.62 72.3497 79.48C72.2097 79.36 72.0997 79.19 72.0197 78.97C71.9397 78.79 71.8297 78.59 71.6897 78.37C71.4097 77.95 71.3297 77.61 71.4497 77.35C71.5097 77.15 71.5297 76.91 71.5097 76.63C71.4697 76.39 71.5397 76.1 71.7197 75.76C71.8997 75.4 72.1197 75.12 72.3797 74.92ZM101.934 63.22C102.054 63.1 102.234 63.05 102.474 63.07C102.534 63.09 102.644 63.11 102.804 63.13C102.984 63.15 103.104 63.16 103.164 63.16C103.404 63.2 103.564 63.29 103.644 63.43C103.724 63.57 103.804 63.88 103.884 64.36C103.924 64.74 103.944 65.42 103.944 66.4C103.944 67.36 103.914 67.89 103.854 67.99C103.834 68.03 103.854 68.18 103.914 68.44C103.994 68.7 103.984 68.97 103.884 69.25C103.804 69.53 103.774 69.84 103.794 70.18C103.834 70.52 103.814 70.8 103.734 71.02C103.634 71.22 103.604 71.45 103.644 71.71C103.704 72.13 103.734 72.86 103.734 73.9C103.754 74.94 103.734 75.6 103.674 75.88C103.614 76.14 103.434 76.4 103.134 76.66C102.834 76.92 102.574 77.04 102.354 77.02C101.874 76.92 101.604 76.62 101.544 76.12C101.504 75.78 101.424 75.48 101.304 75.22C101.104 74.76 101.044 73.61 101.124 71.77C101.124 71.47 101.104 71.24 101.064 71.08C101.024 70.88 101.044 70.68 101.124 70.48C101.224 70.28 101.244 69.99 101.184 69.61C101.144 69.23 101.144 68.92 101.184 68.68C101.224 68.46 101.254 68.19 101.274 67.87C101.274 67.59 101.304 67.34 101.364 67.12C101.424 66.88 101.454 66.3 101.454 65.38C101.454 64.64 101.474 64.15 101.514 63.91C101.574 63.67 101.714 63.44 101.934 63.22ZM90.8044 63.46C91.0444 63.38 91.2744 63.37 91.4944 63.43C91.6744 63.49 91.8844 63.49 92.1244 63.43C92.3844 63.37 92.6244 63.39 92.8444 63.49C93.0844 63.57 93.4144 63.62 93.8344 63.64C94.2744 63.64 94.6344 63.72 94.9144 63.88C95.1744 64.06 95.3644 64.15 95.4844 64.15C95.8644 64.15 96.3444 64.54 96.9244 65.32C97.5244 66.08 97.8744 66.79 97.9744 67.45C98.1544 68.57 98.1944 69.47 98.0944 70.15C98.0144 70.83 97.7844 71.47 97.4044 72.07C97.1644 72.43 96.9944 72.78 96.8944 73.12C96.7544 73.56 96.5644 73.92 96.3244 74.2C96.1044 74.48 95.8844 74.62 95.6644 74.62C95.5644 74.62 95.4244 74.67 95.2444 74.77C95.0644 74.87 94.8044 74.99 94.4644 75.13C94.1244 75.25 93.9044 75.31 93.8044 75.31C93.7044 75.31 93.5144 75.36 93.2344 75.46C92.6944 75.68 92.2544 75.65 91.9144 75.37C91.7144 75.21 91.5044 75.15 91.2844 75.19C91.0844 75.23 90.8944 75.2 90.7144 75.1C90.7144 75.08 90.4844 74.95 90.0244 74.71C89.6044 74.49 89.1444 74.11 88.6444 73.57C88.1644 73.03 87.8544 72.56 87.7144 72.16C87.3344 71.1 87.1844 70.41 87.2644 70.09C87.3244 69.85 87.3244 69.55 87.2644 69.19C87.2244 68.91 87.2644 68.52 87.3844 68.02C87.5044 67.52 87.6644 67.09 87.8644 66.73C88.0044 66.49 88.1144 66.25 88.1944 66.01C88.3344 65.51 88.6144 65.16 89.0344 64.96C89.1744 64.88 89.4544 64.63 89.8744 64.21C90.3144 63.77 90.6244 63.52 90.8044 63.46ZM93.2944 66.28C92.7144 66.28 92.3144 66.26 92.0944 66.22C91.8344 66.18 91.5544 66.26 91.2544 66.46C90.9544 66.64 90.8044 66.82 90.8044 67C90.8044 67.06 90.7444 67.14 90.6244 67.24C90.4044 67.42 90.2644 67.71 90.2044 68.11C90.1644 68.35 90.0844 68.59 89.9644 68.83C89.6244 69.51 89.6744 70.3 90.1144 71.2C90.3544 71.68 90.4744 71.98 90.4744 72.1C90.4744 72.28 90.5444 72.43 90.6844 72.55C90.8444 72.65 91.0544 72.7 91.3144 72.7C91.6344 72.72 91.9144 72.78 92.1544 72.88C92.3744 72.98 92.5544 73.02 92.6944 73C92.8544 72.98 93.0544 72.88 93.2944 72.7C93.5144 72.56 93.7644 72.43 94.0444 72.31C94.3044 72.21 94.4844 72.11 94.5844 72.01C94.7044 71.89 94.7844 71.71 94.8244 71.47C94.8444 71.23 94.9244 71.02 95.0644 70.84C95.3044 70.58 95.4444 70.17 95.4844 69.61C95.5444 69.05 95.4944 68.58 95.3344 68.2C95.1744 67.84 95.0744 67.56 95.0344 67.36C94.9744 66.94 94.8244 66.66 94.5844 66.52C94.3444 66.36 93.9144 66.28 93.2944 66.28ZM119.188 59.29C119.428 59.23 119.908 59.2 120.628 59.2C121.348 59.18 121.828 59.21 122.068 59.29C122.248 59.35 122.408 59.35 122.548 59.29C122.928 59.15 123.308 59.21 123.688 59.47C123.888 59.61 124.038 59.68 124.138 59.68C124.398 59.68 124.668 60.02 124.948 60.7C125.248 61.38 125.348 61.89 125.248 62.23C125.168 62.49 125.098 62.75 125.038 63.01C124.958 63.33 124.818 63.59 124.618 63.79C123.918 64.49 123.518 64.95 123.418 65.17C123.338 65.37 123.458 65.63 123.778 65.95C124.058 66.25 124.278 66.55 124.438 66.85C124.638 67.19 124.878 67.41 125.158 67.51C125.198 67.53 125.238 67.68 125.278 67.96C125.338 68.22 125.348 68.42 125.308 68.56C125.288 68.72 125.128 68.94 124.828 69.22C124.528 69.48 124.308 69.62 124.168 69.64C124.028 69.66 123.848 69.6 123.628 69.46C123.428 69.32 123.188 69.2 122.908 69.1C122.668 69.04 122.498 68.96 122.398 68.86C122.298 68.76 122.128 68.49 121.888 68.05C121.368 67.15 120.838 66.89 120.298 67.27C120.218 67.33 119.938 67.53 119.458 67.87C119.018 68.17 118.718 68.43 118.558 68.65C118.358 68.85 118.178 69 118.018 69.1C117.398 69.36 117.008 69.49 116.848 69.49C116.688 69.49 116.478 69.35 116.218 69.07C115.878 68.67 115.748 68.25 115.828 67.81C115.928 67.35 116.198 67.06 116.638 66.94C116.858 66.88 117.108 66.73 117.388 66.49C117.708 66.23 118.128 65.92 118.648 65.56C119.868 64.7 120.638 64.03 120.958 63.55C121.098 63.35 121.198 63.22 121.258 63.16C121.338 63.1 121.458 63.05 121.618 63.01C121.858 62.95 122.098 62.8 122.338 62.56C122.578 62.3 122.698 62.06 122.698 61.84C122.698 61.6 122.318 61.46 121.558 61.42C120.798 61.36 120.168 61.44 119.668 61.66C119.428 61.76 119.158 61.78 118.858 61.72C118.538 61.66 118.328 61.65 118.228 61.69C117.728 61.93 117.328 61.88 117.028 61.54C116.728 61.18 116.698 60.73 116.938 60.19C116.998 60.07 117.208 59.92 117.568 59.74C117.948 59.54 118.248 59.44 118.468 59.44C118.668 59.44 118.908 59.39 119.188 59.29ZM129.928 59.71C130.188 59.63 130.438 59.67 130.678 59.83C130.818 59.93 130.978 60.01 131.158 60.07C131.398 60.15 131.548 60.43 131.608 60.91C131.688 61.39 131.658 61.96 131.518 62.62C131.418 63.04 131.358 63.72 131.338 64.66C131.318 65.58 131.278 66.12 131.218 66.28C131.178 66.42 131.198 66.68 131.278 67.06C131.358 67.44 131.368 67.8 131.308 68.14C131.248 68.5 131.218 68.83 131.218 69.13C131.218 69.61 131.058 69.89 130.738 69.97C130.558 70.01 130.398 70.08 130.258 70.18C129.958 70.38 129.668 70.4 129.388 70.24C129.128 70.06 128.978 69.77 128.938 69.37C128.918 68.99 128.878 68.72 128.818 68.56C128.758 68.4 128.748 67.94 128.788 67.18C128.828 66.42 128.808 65.95 128.728 65.77C128.648 65.57 128.408 65.47 128.008 65.47C127.668 65.47 127.338 65.38 127.018 65.2C126.698 65 126.488 64.79 126.388 64.57C126.308 64.35 126.348 64.15 126.508 63.97C126.548 63.93 126.698 63.79 126.958 63.55C127.178 63.35 127.338 63.22 127.438 63.16C127.558 63.1 127.768 63.04 128.068 62.98C128.568 62.88 128.858 62.64 128.938 62.26C128.978 62.08 129.028 61.91 129.088 61.75C129.148 61.57 129.178 61.29 129.178 60.91C129.178 60.23 129.428 59.83 129.928 59.71ZM121.618 71.53C122.018 71.47 122.938 71.44 124.378 71.44C125.518 71.46 126.258 71.49 126.598 71.53C126.938 71.57 127.298 71.69 127.678 71.89C127.918 72.03 128.108 72.1 128.248 72.1C128.588 72.1 128.918 72.3 129.238 72.7C129.418 72.92 129.568 73.06 129.688 73.12C129.908 73.24 130.088 73.61 130.228 74.23C130.268 74.49 130.338 74.75 130.438 75.01C130.658 75.53 130.728 76.07 130.648 76.63C130.588 77.17 130.408 77.61 130.108 77.95C129.868 78.23 129.748 78.45 129.748 78.61C129.748 79.23 129.428 79.54 128.788 79.54C128.548 79.54 128.348 79.6 128.188 79.72C127.508 80.22 126.468 80.48 125.068 80.5C124.408 80.52 123.958 80.55 123.718 80.59C123.478 80.63 123.278 80.61 123.118 80.53C122.958 80.43 122.768 80.4 122.548 80.44C122.308 80.46 121.928 80.36 121.408 80.14C120.128 79.52 119.318 78.88 118.978 78.22C118.778 77.88 118.608 77.62 118.468 77.44C117.828 76.64 117.738 75.65 118.198 74.47C118.378 74.01 118.538 73.56 118.678 73.12C118.798 72.68 118.948 72.37 119.128 72.19C119.308 72.01 119.518 71.94 119.758 71.98C119.938 72.02 120.188 71.97 120.508 71.83C120.788 71.69 121.158 71.59 121.618 71.53ZM126.538 73.96C126.038 73.78 125.658 73.77 125.398 73.93C125.298 73.99 125.078 74 124.738 73.96C124.418 73.94 124.118 73.95 123.838 73.99C123.698 74.03 123.338 74.09 122.758 74.17C122.138 74.27 121.698 74.4 121.438 74.56C121.198 74.7 121.078 74.88 121.078 75.1C121.078 75.24 120.998 75.4 120.838 75.58C120.638 75.8 120.558 76 120.598 76.18C120.658 76.34 120.858 76.63 121.198 77.05C121.538 77.49 121.818 77.78 122.038 77.92C122.258 78.06 122.528 78.13 122.848 78.13C123.088 78.13 123.338 78.17 123.598 78.25C124.238 78.43 124.798 78.47 125.278 78.37C125.938 78.23 126.378 78.12 126.598 78.04C126.838 77.94 127.068 77.79 127.288 77.59C127.608 77.31 127.788 77.16 127.828 77.14C128.008 76.98 128.098 76.7 128.098 76.3C128.118 75.9 128.048 75.62 127.888 75.46C127.548 75.16 127.428 74.93 127.528 74.77C127.588 74.65 127.518 74.52 127.318 74.38C127.138 74.22 126.878 74.08 126.538 73.96ZM137.16 59.89C137.4 59.81 137.65 59.79 137.91 59.83C138.31 59.89 138.96 59.89 139.86 59.83C140.64 59.79 141.77 59.79 143.25 59.83C144.75 59.87 145.56 59.92 145.68 59.98C146.04 60.16 146.24 60.45 146.28 60.85C146.34 61.25 146.25 61.61 146.01 61.93C145.77 62.23 145.46 62.35 145.08 62.29C144.8 62.25 144.14 62.23 143.1 62.23C142.18 62.23 141.48 62.21 141 62.17C140.6 62.11 140.24 62.13 139.92 62.23C139.62 62.31 139.1 62.35 138.36 62.35C137.62 62.35 137.23 62.37 137.19 62.41C137.11 62.57 137.06 62.88 137.04 63.34C137.02 63.78 137.05 64.16 137.13 64.48C137.25 64.96 137.34 65.34 137.4 65.62C137.48 66.08 137.67 66.42 137.97 66.64C138.27 66.86 138.63 66.91 139.05 66.79C139.25 66.73 139.54 66.73 139.92 66.79C140.26 66.87 140.6 66.88 140.94 66.82C141.24 66.76 141.75 66.73 142.47 66.73C143.19 66.71 143.77 66.72 144.21 66.76C144.79 66.82 145.22 67.06 145.5 67.48C145.8 67.88 145.78 68.2 145.44 68.44C145.28 68.56 145.15 68.71 145.05 68.89C144.95 69.05 144.82 69.15 144.66 69.19C144.5 69.21 144.24 69.18 143.88 69.1C143.58 69.04 143.36 69.01 143.22 69.01C143.08 69.01 142.79 69.05 142.35 69.13C140.85 69.37 139.86 69.41 139.38 69.25C139.12 69.17 138.82 69.14 138.48 69.16C138.16 69.2 137.85 69.15 137.55 69.01C137.27 68.89 137.03 68.81 136.83 68.77C136.41 68.71 135.96 68.36 135.48 67.72C135 67.06 134.72 66.43 134.64 65.83C134.52 64.81 134.5 64.2 134.58 64C134.64 63.84 134.64 63.67 134.58 63.49C134.54 63.29 134.57 63.05 134.67 62.77C134.77 62.49 134.79 62.22 134.73 61.96C134.69 61.76 134.69 61.58 134.73 61.42C134.79 61.24 134.94 60.96 135.18 60.58C135.32 60.34 135.45 60.19 135.57 60.13C135.71 60.05 135.94 60.01 136.26 60.01C136.62 60.01 136.92 59.97 137.16 59.89ZM148.53 59.89C148.81 59.79 149.09 59.83 149.37 60.01C149.53 60.11 149.67 60.16 149.79 60.16C149.97 60.16 150.14 60.37 150.3 60.79C150.46 61.21 150.55 61.71 150.57 62.29C150.59 62.77 150.65 63.04 150.75 63.1C150.89 63.16 151.12 63.24 151.44 63.34C151.76 63.44 151.95 63.48 152.01 63.46C152.21 63.4 152.36 63.54 152.46 63.88C152.58 64.22 152.58 64.53 152.46 64.81C152.24 65.27 151.78 65.5 151.08 65.5C150.66 65.5 150.4 65.57 150.3 65.71C150.22 65.83 150.16 66.22 150.12 66.88C150.08 67.48 150.02 67.87 149.94 68.05C149.86 68.23 149.8 68.56 149.76 69.04C149.74 69.4 149.71 69.63 149.67 69.73C149.65 69.83 149.57 69.97 149.43 70.15C149.21 70.39 149.1 70.53 149.1 70.57C149.1 70.61 149.02 70.64 148.86 70.66C148.5 70.72 148.14 70.59 147.78 70.27C147.44 69.95 147.33 69.66 147.45 69.4C147.57 69.18 147.56 68.75 147.42 68.11C147.3 67.51 147.33 67.06 147.51 66.76C147.57 66.64 147.62 65.9 147.66 64.54C147.66 64.04 147.7 63.73 147.78 63.61C147.84 63.49 147.85 63.29 147.81 63.01C147.77 62.73 147.8 62.48 147.9 62.26C147.96 62.12 147.99 62.02 147.99 61.96C147.99 61.9 147.94 61.77 147.84 61.57C147.7 61.31 147.65 61.08 147.69 60.88C147.75 60.66 147.93 60.37 148.23 60.01C148.23 59.99 148.33 59.95 148.53 59.89ZM136.71 71.68C136.87 71.54 137.04 71.49 137.22 71.53C137.26 71.53 137.36 71.55 137.52 71.59C137.68 71.61 137.79 71.63 137.85 71.65C138.03 71.67 138.18 71.74 138.3 71.86C138.42 71.96 138.48 72.08 138.48 72.22C138.48 72.32 138.53 72.55 138.63 72.91C138.75 73.29 138.88 73.51 139.02 73.57C139.16 73.63 139.56 73.63 140.22 73.57C140.94 73.51 141.39 73.51 141.57 73.57C142.03 73.75 142.43 73.73 142.77 73.51C142.91 73.43 143.07 73.38 143.25 73.36C143.45 73.34 143.96 73.33 144.78 73.33H146.52L146.67 72.97C146.81 72.59 147.04 72.31 147.36 72.13C147.7 71.93 148.07 71.88 148.47 71.98C148.83 72.08 149.04 72.21 149.1 72.37C149.18 72.51 149.17 72.81 149.07 73.27C149.01 73.59 149 73.86 149.04 74.08C149.1 74.42 149.12 74.98 149.1 75.76C149.08 76.52 149.03 76.98 148.95 77.14C148.85 77.36 148.82 77.69 148.86 78.13C148.88 78.47 148.88 78.68 148.86 78.76C148.84 78.84 148.74 78.96 148.56 79.12C148.36 79.32 148.19 79.44 148.05 79.48C147.93 79.52 147.78 79.51 147.6 79.45C147.4 79.39 147.1 79.44 146.7 79.6C145.98 79.88 145.23 80 144.45 79.96C143.99 79.92 143.51 79.94 143.01 80.02C142.53 80.12 142.15 80.13 141.87 80.05C141.59 79.95 141.33 79.94 141.09 80.02C140.91 80.1 140.67 80.12 140.37 80.08C140.07 80.06 139.87 80 139.77 79.9C139.69 79.84 139.5 79.79 139.2 79.75C138.62 79.69 138.24 79.5 138.06 79.18C137.96 79.02 137.78 78.85 137.52 78.67C137.26 78.49 137.11 78.36 137.07 78.28C136.97 78.08 136.79 77.7 136.53 77.14C136.27 76.64 136.12 76.31 136.08 76.15C136.04 75.97 136.02 75.63 136.02 75.13C136 74.45 135.97 73.93 135.93 73.57C135.91 73.27 135.97 72.93 136.11 72.55C136.27 72.17 136.47 71.88 136.71 71.68ZM145.86 75.73C145.24 75.41 144.68 75.35 144.18 75.55C144.04 75.61 143.81 75.64 143.49 75.64C143.13 75.64 142.68 75.7 142.14 75.82C141.6 75.96 141.06 76.03 140.52 76.03C140.06 76.03 139.77 76.07 139.65 76.15C139.53 76.21 139.49 76.38 139.53 76.66C139.59 77 139.77 77.24 140.07 77.38C140.37 77.52 140.92 77.61 141.72 77.65C142.32 77.69 142.75 77.76 143.01 77.86C143.29 77.98 143.52 78.01 143.7 77.95C143.92 77.89 144.27 77.85 144.75 77.83C145.25 77.77 145.53 77.73 145.59 77.71C145.65 77.65 145.82 77.63 146.1 77.65C146.36 77.65 146.52 77.62 146.58 77.56C146.64 77.48 146.68 77.27 146.7 76.93C146.76 76.33 146.7 76.03 146.52 76.03C146.46 76.03 146.24 75.93 145.86 75.73ZM158.231 59.44C158.591 59.4 158.971 59.39 159.371 59.41C159.491 59.43 159.841 59.45 160.421 59.47C160.681 59.49 160.881 59.53 161.021 59.59C161.161 59.65 161.381 59.78 161.681 59.98C161.941 60.16 162.181 60.29 162.401 60.37C162.661 60.45 162.851 60.54 162.971 60.64C163.091 60.74 163.241 60.94 163.421 61.24C164.161 62.38 164.571 63.35 164.651 64.15C164.751 64.95 164.541 65.86 164.021 66.88C163.801 67.34 163.651 67.69 163.571 67.93C163.511 68.17 163.401 68.37 163.241 68.53C163.101 68.67 162.951 68.74 162.791 68.74C162.651 68.74 162.431 68.82 162.131 68.98C161.511 69.32 160.841 69.54 160.121 69.64C159.401 69.74 158.781 69.7 158.261 69.52C156.921 69.12 155.901 68.55 155.201 67.81C154.501 67.05 154.151 66.18 154.151 65.2C154.151 64.7 154.131 64.37 154.091 64.21C153.991 63.79 154.141 63.19 154.541 62.41C154.941 61.61 155.371 61.09 155.831 60.85C156.171 60.67 156.461 60.46 156.701 60.22C157.041 59.92 157.291 59.73 157.451 59.65C157.631 59.55 157.891 59.48 158.231 59.44ZM158.981 62.08C158.061 61.78 157.341 62.3 156.821 63.64C156.481 64.48 156.451 65.18 156.731 65.74C156.891 66.06 156.981 66.28 157.001 66.4C157.061 66.6 157.131 66.74 157.211 66.82C157.311 66.88 157.491 66.93 157.751 66.97C158.051 67.01 158.381 67.11 158.741 67.27C159.041 67.41 159.271 67.48 159.431 67.48C159.591 67.46 159.841 67.37 160.181 67.21C160.361 67.13 160.571 67.07 160.811 67.03C161.031 66.99 161.171 66.94 161.231 66.88C161.311 66.8 161.401 66.65 161.501 66.43C161.561 66.21 161.671 65.99 161.831 65.77C162.051 65.49 162.161 65.15 162.161 64.75C162.181 64.35 162.101 63.99 161.921 63.67C161.781 63.45 161.691 63.22 161.651 62.98C161.591 62.64 161.431 62.41 161.171 62.29C160.911 62.15 160.511 62.1 159.971 62.14C159.571 62.18 159.241 62.16 158.981 62.08ZM167.531 59.86C167.811 59.72 168.141 59.74 168.521 59.92C168.701 60 168.831 60.05 168.911 60.07C169.011 60.07 169.101 60.16 169.181 60.34C169.261 60.52 169.321 60.73 169.361 60.97C169.401 61.37 169.431 61.66 169.451 61.84C169.491 62.12 169.451 62.45 169.331 62.83C169.211 63.21 169.171 63.5 169.211 63.7C169.231 63.92 169.211 64.35 169.151 64.99C169.091 65.67 169.061 66.38 169.061 67.12C169.041 68.34 169.001 69.17 168.941 69.61C168.901 70.05 168.811 70.31 168.671 70.39C168.551 70.45 168.461 70.55 168.401 70.69C168.281 70.87 168.091 70.98 167.831 71.02C167.571 71.04 167.331 70.97 167.111 70.81C166.811 70.61 166.631 70.44 166.571 70.3C166.531 70.16 166.551 69.89 166.631 69.49C166.671 69.31 166.631 69.05 166.511 68.71C166.411 68.37 166.371 68.14 166.391 68.02C166.531 67.54 166.611 66.61 166.631 65.23C166.631 64.53 166.661 64.13 166.721 64.03C166.781 63.93 166.801 63.42 166.781 62.5C166.781 61.64 166.831 61.03 166.931 60.67C167.031 60.29 167.231 60.02 167.531 59.86ZM155.891 72.31C156.271 72.03 156.641 72 157.001 72.22C157.361 72.44 157.581 72.83 157.661 73.39C157.701 73.79 157.841 74.04 158.081 74.14C158.321 74.22 158.781 74.19 159.461 74.05C159.841 73.99 160.231 74.01 160.631 74.11C160.911 74.17 161.091 74.2 161.171 74.2C161.251 74.2 161.391 74.16 161.591 74.08C161.811 73.98 162.241 73.9 162.881 73.84C163.521 73.78 164.071 73.78 164.531 73.84C164.871 73.88 165.101 73.87 165.221 73.81C165.341 73.75 165.431 73.6 165.491 73.36C165.551 73.14 165.741 72.93 166.061 72.73C166.361 72.55 166.561 72.46 166.661 72.46C166.781 72.44 166.991 72.48 167.291 72.58C167.611 72.7 167.811 72.83 167.891 72.97C167.971 73.09 168.011 73.37 168.011 73.81C168.011 73.97 168.011 74.21 168.011 74.53C168.011 74.85 168.011 75.06 168.011 75.16C168.031 76.42 167.941 77.25 167.741 77.65C167.641 77.83 167.611 78.11 167.651 78.49C167.671 78.91 167.651 79.18 167.591 79.3C167.551 79.44 167.391 79.61 167.111 79.81C166.871 79.99 166.711 80.09 166.631 80.11C166.551 80.13 166.411 80.13 166.211 80.11C165.971 80.07 165.681 80.11 165.341 80.23C164.681 80.47 164.031 80.54 163.391 80.44C162.991 80.4 162.691 80.41 162.491 80.47C162.391 80.49 162.171 80.54 161.831 80.62C161.591 80.68 161.281 80.66 160.901 80.56C160.521 80.48 160.231 80.47 160.031 80.53C159.671 80.65 159.321 80.61 158.981 80.41C158.741 80.29 158.501 80.24 158.261 80.26C158.041 80.3 157.811 80.27 157.571 80.17C157.351 80.07 157.201 79.94 157.121 79.78C157.021 79.62 156.871 79.48 156.671 79.36C156.231 79.14 155.931 78.8 155.771 78.34C155.691 78.08 155.561 77.77 155.381 77.41C155.241 77.17 155.161 76.98 155.141 76.84C155.121 76.7 155.111 76.33 155.111 75.73C155.111 74.99 155.111 74.43 155.111 74.05C155.091 73.73 155.151 73.4 155.291 73.06C155.451 72.72 155.651 72.47 155.891 72.31ZM164.321 76.27C164.161 76.17 163.951 76.1 163.691 76.06C163.431 76.02 163.231 76.03 163.091 76.09C162.931 76.15 162.601 76.2 162.101 76.24C161.561 76.3 161.231 76.36 161.111 76.42C160.991 76.48 160.571 76.51 159.851 76.51C159.171 76.51 158.751 76.57 158.591 76.69C158.431 76.81 158.411 77.06 158.531 77.44C158.611 77.66 158.901 77.86 159.401 78.04C159.921 78.22 160.391 78.29 160.811 78.25C161.111 78.21 161.431 78.24 161.771 78.34C162.131 78.44 162.401 78.46 162.581 78.4C162.741 78.32 163.021 78.28 163.421 78.28C163.801 78.28 164.061 78.24 164.201 78.16C164.361 78.08 164.561 78.05 164.801 78.07C165.041 78.09 165.191 78.08 165.251 78.04C165.311 77.98 165.371 77.79 165.431 77.47C165.491 77.15 165.491 76.94 165.431 76.84C165.391 76.74 165.241 76.66 164.981 76.6C164.741 76.52 164.521 76.41 164.321 76.27ZM187.012 63.19C187.252 63.05 187.512 63.07 187.792 63.25C187.912 63.31 188.052 63.35 188.212 63.37C188.512 63.37 188.702 63.5 188.782 63.76C188.862 64 188.922 64.38 188.962 64.9C189.022 65.4 189.042 65.75 189.022 65.95C188.922 66.61 188.872 67.69 188.872 69.19C188.872 70.11 188.832 70.64 188.752 70.78C188.692 70.92 188.672 71.48 188.692 72.46C188.752 74 188.752 75 188.692 75.46C188.652 75.9 188.532 76.19 188.332 76.33C188.132 76.47 187.962 76.6 187.822 76.72C187.602 76.92 187.342 76.93 187.042 76.75C186.762 76.57 186.612 76.31 186.592 75.97C186.572 75.75 186.492 75.52 186.352 75.28C186.192 75.06 186.112 74.72 186.112 74.26C186.092 73.78 186.062 73.34 186.022 72.94C186.002 72.52 186.032 72.21 186.112 72.01C186.252 71.65 186.262 71.26 186.142 70.84C186.102 70.66 186.122 70.46 186.202 70.24C186.282 70 186.292 69.68 186.232 69.28C186.152 68.74 186.202 67.99 186.382 67.03C186.442 66.79 186.462 66.24 186.442 65.38C186.422 64.7 186.452 64.2 186.532 63.88C186.612 63.56 186.772 63.33 187.012 63.19ZM173.542 63.73C173.782 63.61 174.092 63.63 174.472 63.79C174.852 63.95 175.112 64.18 175.252 64.48C175.332 64.62 175.372 65 175.372 65.62C175.392 66.24 175.362 66.66 175.282 66.88C175.222 67.1 175.132 67.83 175.012 69.07C174.992 69.37 175.022 69.65 175.102 69.91C175.182 70.17 175.232 70.47 175.252 70.81C175.292 71.23 175.462 71.59 175.762 71.89C176.082 72.17 176.432 72.3 176.812 72.28C177.232 72.24 177.582 72.25 177.862 72.31C178.062 72.35 178.282 72.32 178.522 72.22C178.762 72.14 179.112 72.11 179.572 72.13C180.032 72.17 180.322 72.17 180.442 72.13C180.562 72.07 180.812 72.08 181.192 72.16C181.572 72.24 181.852 72.28 182.032 72.28C182.332 72.28 182.622 72.53 182.902 73.03C183.182 73.51 183.252 73.88 183.112 74.14C182.992 74.34 182.742 74.54 182.362 74.74C182.002 74.92 181.692 74.99 181.432 74.95C180.912 74.91 180.372 74.9 179.812 74.92C178.572 74.98 177.762 74.91 177.382 74.71C177.182 74.63 177.002 74.62 176.842 74.68C176.542 74.78 176.182 74.74 175.762 74.56C175.442 74.44 175.202 74.39 175.042 74.41C174.742 74.47 174.332 74.26 173.812 73.78C173.292 73.28 172.942 72.77 172.762 72.25C172.562 71.71 172.432 71.04 172.372 70.24C172.312 69.44 172.332 68.76 172.432 68.2C172.532 67.72 172.572 67.17 172.552 66.55C172.512 65.87 172.582 65.27 172.762 64.75C172.942 64.23 173.202 63.89 173.542 63.73ZM206.103 62.65C206.263 62.55 206.383 62.51 206.463 62.53C206.543 62.53 206.723 62.6 207.003 62.74C207.323 62.9 207.503 62.98 207.543 62.98C207.803 62.98 207.923 63.77 207.903 65.35C207.883 65.49 207.873 65.76 207.873 66.16C207.873 66.48 207.863 66.82 207.843 67.18C207.803 67.7 207.843 68.02 207.963 68.14C208.083 68.24 208.353 68.21 208.773 68.05C209.333 67.85 209.863 67.85 210.363 68.05C210.643 68.15 210.833 68.17 210.933 68.11C211.033 68.05 211.143 68.08 211.263 68.2C211.383 68.32 211.473 68.5 211.533 68.74C211.613 68.96 211.643 69.16 211.623 69.34C211.603 69.6 211.303 69.84 210.723 70.06C210.143 70.26 209.513 70.36 208.833 70.36C208.133 70.38 207.733 70.41 207.633 70.45C207.553 70.49 207.513 70.67 207.513 70.99C207.513 71.35 207.483 71.59 207.423 71.71C207.343 71.85 207.303 72.66 207.303 74.14C207.303 74.18 207.303 74.25 207.303 74.35C207.283 75.47 207.253 76.13 207.213 76.33C207.193 76.53 207.083 76.68 206.883 76.78C206.863 76.78 206.843 76.78 206.823 76.78C206.603 76.9 206.463 77.01 206.403 77.11C206.243 77.39 205.973 77.44 205.593 77.26C205.213 77.08 205.053 76.82 205.113 76.48C205.153 76.28 205.103 76.01 204.963 75.67C204.843 75.41 204.773 75.24 204.753 75.16C204.753 75.08 204.783 74.96 204.843 74.8C204.923 74.58 204.933 74.31 204.873 73.99C204.753 73.43 204.783 72.81 204.963 72.13C205.043 71.85 205.053 71.64 204.993 71.5C204.873 71.24 204.883 70.97 205.023 70.69C205.263 70.23 205.333 69.79 205.233 69.37C205.173 69.17 205.183 68.98 205.263 68.8C205.343 68.62 205.373 68.38 205.353 68.08C205.313 67.82 205.343 67.58 205.443 67.36C205.543 67.14 205.573 66.86 205.533 66.52C205.493 66.18 205.513 65.89 205.593 65.65C205.673 65.43 205.673 65.12 205.593 64.72C205.493 64.34 205.493 63.94 205.593 63.52C205.713 63.08 205.883 62.79 206.103 62.65ZM194.613 63.1C194.993 62.98 195.373 62.98 195.753 63.1C195.993 63.18 196.283 63.2 196.623 63.16C196.963 63.12 197.853 63.1 199.293 63.1C199.353 63.1 199.433 63.1 199.533 63.1C201.193 63.1 202.173 63.13 202.473 63.19C202.773 63.25 203.003 63.43 203.163 63.73C203.163 63.75 203.163 63.76 203.163 63.76C203.463 64.42 203.443 64.92 203.103 65.26C202.763 65.6 202.223 65.67 201.483 65.47C201.243 65.41 200.873 65.43 200.373 65.53C199.873 65.61 199.473 65.62 199.173 65.56C198.533 65.44 197.913 65.46 197.313 65.62C196.953 65.72 196.473 65.77 195.873 65.77C195.313 65.77 194.963 65.82 194.823 65.92C194.683 66.02 194.583 66.27 194.523 66.67C194.363 67.85 194.393 68.84 194.613 69.64C194.713 70.02 194.783 70.41 194.823 70.81C194.903 71.49 195.053 71.96 195.273 72.22C195.493 72.48 195.873 72.63 196.413 72.67C196.933 72.71 197.293 72.76 197.493 72.82C197.733 72.88 197.923 72.88 198.063 72.82C198.263 72.76 198.693 72.74 199.353 72.76C200.033 72.78 200.443 72.83 200.583 72.91C200.743 72.99 200.923 73.05 201.123 73.09C201.463 73.13 201.663 73.18 201.723 73.24C201.803 73.28 201.903 73.43 202.023 73.69C202.183 74.05 202.253 74.3 202.233 74.44C202.213 74.56 202.073 74.74 201.813 74.98C201.553 75.22 201.343 75.37 201.183 75.43C201.043 75.47 200.813 75.46 200.493 75.4C200.153 75.34 199.953 75.34 199.893 75.4C199.733 75.52 199.283 75.58 198.543 75.58C197.803 75.58 197.303 75.52 197.043 75.4C196.703 75.24 196.333 75.16 195.933 75.16C195.533 75.16 195.263 75.11 195.123 75.01C194.983 74.89 194.803 74.84 194.583 74.86C194.243 74.86 193.873 74.66 193.473 74.26C193.293 74.08 193.103 73.91 192.903 73.75C192.563 73.49 192.323 72.94 192.183 72.1C192.123 71.72 192.053 71.43 191.973 71.23C191.893 70.97 191.883 70.43 191.943 69.61C192.083 67.67 192.193 66.53 192.273 66.19C192.333 65.91 192.333 65.62 192.273 65.32C192.153 64.74 192.233 64.24 192.513 63.82C192.813 63.4 193.233 63.19 193.773 63.19C194.073 63.19 194.353 63.16 194.613 63.1Z" fill="#4F2F2F"/>
</svg>
